<svg xmlns="http://www.w3.org/2000/svg" width="220mm" height="220mm" viewBox="0 0 220 220">
  <defs>
    <clipPath id="ue">
      <path stroke="#000" stroke-linecap="round" stroke-linejoin="round" stroke-width="2.8" d="m-35 69 197 98-98 197-197-98z"/>
    </clipPath>
    <clipPath id="ud">
      <path stroke="#000" stroke-linecap="round" stroke-linejoin="round" stroke-width="2.8" d="M0 81h212v230H0z" transform="rotate(-20) skewX(5)"/>
    </clipPath>
    <clipPath id="ua">
      <path stroke="#000" stroke-linecap="round" stroke-linejoin="round" stroke-width="2.8" d="M0 77h220v220H0z"/>
    </clipPath>
    <clipPath id="uc">
      <path stroke="#000" stroke-linecap="round" stroke-linejoin="round" stroke-width="2.8" d="m-12 76 218 33-33 218-218-33z"/>
    </clipPath>
    <clipPath id="ub">
      <path stroke="#000" stroke-linecap="round" stroke-linejoin="round" stroke-width="2.8" d="m-15 76 216 42-42 216-216-43z"/>
    </clipPath>
  </defs>
  <g fill-rule="evenodd">
    <path fill="#fff" stroke="#000" stroke-width="2.8" d="m75 320 10-52h64l10 50z" clip-path="url(#ua)" transform="translate(0 -77)"/>
    <path fill="#dbdbdb" stroke="#000" stroke-width="2.8" d="M144 274s26 2 32-2c16-11 1-17-3-17l-30 2c-19 0-32 5-40 7l-25 8c-6 2-12 16 6 16 0 0 6 0 29-8 16-6 31-6 31-6z" clip-path="url(#ua)" transform="translate(0 -77)"/>
    <path fill="#868686" stroke="#010000" stroke-width="1.4" d="M79 114C66 74 90 97 91 99z" clip-path="url(#ua)" transform="translate(0 -77)"/>
    <path fill="#868686" stroke="#000" stroke-width="1.4" d="M106 96c19-29 14 12 15 10z" clip-path="url(#ua)" transform="translate(0 -77)"/>
  </g>
  <g stroke="#000" stroke-linecap="round">
    <path fill="#fff" stroke-linejoin="round" stroke-width="2.8" d="M57 205s18 1 21-40c4-41-12-39-12-39s-10-3-29 15l-8 8s-8 10-10-3c-4-28 27-25 34-25 23 0 25-10 25-10s4-12 19-14c20-3 19 1 31 14 9 1 35-16 35-16s16-5 17 10c-1 1 7 13-49 13 0 0 8 68 41 73l-59 44z" clip-path="url(#ua)" transform="translate(0 -77)"/>
    <path fill="#fff" stroke-width="1.5" d="M57 173a28 17 0 0 1-32-14 28 17 0 0 1 24-19 28 17 0 0 1 32 14 28 17 0 0 1-24 19" clip-path="url(#ub)" transform="rotate(-11 -396 -38)"/>
    <path stroke-width="1.2" d="M92 146a4 4 0 0 1-4-3 4 4 0 0 1 3-4 4 4 0 0 1 4 3 4 4 0 0 1-3 4" clip-path="url(#ua)" transform="translate(0 -77)"/>
    <path fill="#fff" stroke-width="1.5" d="M108 165a17 12 0 0 1-19-10 17 12 0 0 1 14-13 17 12 0 0 1 19 10 17 12 0 0 1-14 13" clip-path="url(#uc)" transform="rotate(-8.7 -506 -37)"/>
    <path stroke-width="1.2" d="M125 140a4 4 0 0 1-5-3 4 4 0 0 1 3-4 4 4 0 0 1 5 3 4 4 0 0 1-3 4" clip-path="url(#ua)" transform="translate(0 -77)"/>
  </g>
  <path fill="none" stroke="#000" stroke-linecap="round" stroke-width="2.1" d="M152 108c13-8 18-9 18-3M46 127c-24 1-20 13-20 13" clip-path="url(#ua)" transform="translate(0 -77)"/>
  <g stroke="#000">
    <path fill="#dbdbdb" fill-rule="evenodd" stroke-width="2.8" d="M198 236s19-42-20-45c-24-4-37 16-63 18-24 2-23-15-63-2-44 18-9 56-9 56s19 18 57 3c24-14 51-9 51-9 39 0 47-21 47-21z" clip-path="url(#ua)" transform="translate(0 -77)"/>
    <path fill="#a4a4a4" stroke-linecap="round" stroke-width="2.1" d="M255 140a10 5 0 0 1-11-4 10 5 0 0 1 8-6 10 5 0 0 1 12 4 10 5 0 0 1-9 6" clip-path="url(#ud)" transform="matrix(.95 .33 -.43 .9 0 -77)"/>
    <path fill="#a4a4a4" stroke-linecap="round" stroke-width="2.1" d="M-49 234a12 7 0 0 1-13-6 12 7 0 0 1 9-8 12 7 0 0 1 14 6 12 7 0 0 1-10 8" clip-path="url(#ue)" transform="rotate(-27 -163 -39)"/>
  </g>
  <path fill="#fff" d="M34 212a22 22 0 0 1-26-18 22 22 0 0 1 19-26 22 22 0 0 1 25 19 22 22 0 0 1-18 25"/>
  <path fill="none" d="M0 160h60v60H0z"/>
  <path d="M27 205h5v-5h-5zm3-40a25 25 0 1 0 0 50 25 25 0 0 0 0-50zm0 45a20 20 0 1 1 0-40 20 20 0 0 1 0 40zm0-35c-6 0-10 4-10 10h5c0-3 2-5 5-5s5 2 5 5c0 5-8 4-8 13h5c0-6 8-7 8-13s-4-10-10-10z"/>
</svg>
